<svg width="200" height="163" viewBox="0 0 200 163" fill="none" xmlns="http://www.w3.org/2000/svg">
<path d="M68.8717 71.9127C68.3076 75.0064 69.2478 78.5126 70 78.7189V86.1438L44.0494 88C40.8526 86.1438 34.5718 79.7089 35.0231 78.7189C36.1514 78.1001 36.1514 73.7689 35.0231 72.5315C42.3569 71.5002 69.6279 67.7656 68.8717 71.9127Z" fill="#F0CF1B" stroke="#84762D" stroke-width="2"/>
<path d="M54.5278 85.5C46.7309 85.87 35 80 35 80L36.0278 94L72 93L69.4306 80.5C69.4306 80.5 60.6767 85.2082 54.5278 85.5Z" fill="#D9D9D9" stroke="#E9E9E9"/>
<path d="M52.7857 139C88.627 139 100.385 127.411 103.988 124.981C103.988 124.981 104.257 113.102 102.281 105.916C97.698 89.2479 85.7824 79 81.8001 79H69.7143C69.7143 79 65.3636 89.678 56.6061 91.2034C48.2308 92.6622 33.8729 79 33.8729 79C28.1838 78.9999 29.9533 79 25.9708 79C21.9883 79 11.7502 89.4394 7.19662 98.6262C3.69514 105.69 2.55124 109.843 2.07642 117.692C1.90449 120.533 2.07642 124.981 2.07642 124.981C5.86916 128.159 16.9443 139 52.7857 139Z" fill="#AAD699" stroke="#537446" stroke-width="3"/>
<path d="M67 137C80.4545 126.725 92.4141 104.052 96.7121 94L98.3939 96.7922L101.758 104.61L103.439 110.195L104 116.896V124.156L100.076 126.948L92.2273 130.857L82.697 134.208L71.4848 136.442L67 137Z" fill="#67A350"/>
<path d="M52.7857 139C88.627 139 100.385 127.411 103.988 124.981C103.988 124.981 104.257 113.102 102.281 105.916C97.698 89.2479 85.7824 79 81.8001 79H69.7143C69.7143 79 65.3636 89.678 56.6061 91.2034C48.2308 92.6622 33.8729 79 33.8729 79C28.1838 78.9999 29.9533 79 25.9708 79C21.9883 79 11.7502 89.4394 7.19662 98.6262C3.69514 105.69 2.55124 109.843 2.07642 117.692C1.90449 120.533 2.07642 124.981 2.07642 124.981C5.86916 128.159 16.9443 139 52.7857 139Z" stroke="#537446" stroke-width="3"/>
<path d="M121.128 93.8065C121.692 96.7283 120.752 100.04 120 100.235V107.247L145.951 109C149.147 107.247 155.428 101.169 154.977 100.234C153.849 99.6501 153.849 95.5596 154.977 94.3908C147.643 93.4169 120.372 89.8898 121.128 93.8065Z" fill="url(#paint0_linear_2013_16)" stroke="#BD9A73" stroke-width="2"/>
<rect x="139" y="15" width="11" height="4" fill="#5E5E5E"/>
<path d="M138 104.429C131.22 104.429 121 101 121 101L132.138 133H139.172L155 101C155 101 144.78 104.429 138 104.429Z" fill="#B8D9FF" stroke="#1578D4" stroke-width="2"/>
<path d="M141.128 161C105.347 161 93.6094 149.218 90.0123 146.748C90.0123 146.748 89.7435 134.67 91.7161 127.364C96.2914 110.419 108.187 100 112.163 100H120.114C120.73 100 121.506 101.555 122.396 103.991C125.036 111.217 128.68 126.193 132.116 131.309C133.573 132.728 134.313 133.065 134.313 133.065C138.526 133.065 146.599 110.596 152.487 102.702C153.742 101.02 154.897 100 155.895 100C159.931 99.9999 165.4 100 169.654 100L174.069 100C178.045 100 188.266 110.613 192.812 119.953C196.308 127.135 197.45 131.357 197.924 139.336C198.095 142.226 197.924 146.748 197.924 146.748C194.137 149.978 176.909 161 141.128 161Z" fill="#4F90E6"/>
<path d="M134.313 133.065C137.72 133.065 147.944 120.523 158.167 105.131L152.487 102.702M134.313 133.065C138.526 133.065 146.599 110.596 152.487 102.702M134.313 133.065C134.313 133.065 128.065 130.215 116.138 106.271L122.396 103.991M134.313 133.065C130.31 133.065 125.61 112.786 122.396 103.991M152.487 102.702C153.742 101.02 154.897 100 155.895 100C161.574 99.9999 170.094 100 174.069 100C178.045 100 188.266 110.613 192.812 119.953C196.308 127.135 197.45 131.357 197.924 139.336C198.095 142.226 197.924 146.748 197.924 146.748C194.137 149.978 176.909 161 141.128 161C105.347 161 93.6094 149.218 90.0123 146.748C90.0123 146.748 89.7435 134.67 91.7161 127.364C96.2914 110.419 108.187 100 112.163 100C116.138 100 117.274 100 120.114 100C120.73 100 121.506 101.555 122.396 103.991" stroke="#1160C7" stroke-width="2"/>
<path d="M141.128 161C105.347 161 93.6094 149.218 90.0123 146.748C90.0123 146.748 89.7435 134.67 91.7161 127.364C96.2914 110.419 108.187 100 112.163 100H120.114C120.73 100 121.506 101.555 122.396 103.991C125.036 111.217 128.68 126.193 132.116 131.309C133.573 132.728 134.313 133.065 134.313 133.065C138.526 133.065 146.599 110.596 152.487 102.702C153.742 101.02 154.897 100 155.895 100C159.931 99.9999 165.4 100 169.654 100L174.069 100C178.045 100 188.266 110.613 192.812 119.953C196.308 127.135 197.45 131.357 197.924 139.336C198.095 142.226 197.924 146.748 197.924 146.748C194.137 149.978 176.909 161 141.128 161Z" fill="#73AEFB"/>
<path d="M134.313 133.065C137.72 133.065 147.944 120.523 158.167 105.131L152.487 102.702M134.313 133.065C138.526 133.065 146.599 110.596 152.487 102.702M134.313 133.065C134.313 133.065 128.065 130.215 116.138 106.271L122.396 103.991M134.313 133.065C130.31 133.065 125.61 112.786 122.396 103.991M152.487 102.702C153.742 101.02 154.897 100 155.895 100C161.574 99.9999 170.094 100 174.069 100C178.045 100 188.266 110.613 192.812 119.953C196.308 127.135 197.45 131.357 197.924 139.336C198.095 142.226 197.924 146.748 197.924 146.748C194.137 149.978 176.909 161 141.128 161C105.347 161 93.6094 149.218 90.0123 146.748C90.0123 146.748 89.7435 134.67 91.7161 127.364C96.2914 110.419 108.187 100 112.163 100C116.138 100 117.274 100 120.114 100C120.73 100 121.506 101.555 122.396 103.991" stroke="#1160C7" stroke-width="3"/>
<path d="M161 160C174.455 149.725 186.414 127.052 190.712 117L192.394 119.792L195.758 127.61L197.439 133.195L198 139.896V147.156L194.076 149.948L186.227 153.857L176.697 157.208L165.485 159.442L161 160Z" fill="#1063CF" fill-opacity="0.64"/>
<path d="M105 44C107.323 44 109.549 45.4126 111.239 47.9482C112.925 50.4769 114 54.0279 114 58C114 61.9721 112.925 65.5231 111.239 68.0518C109.549 70.5874 107.323 72 105 72C102.677 72 100.451 70.5874 98.7607 68.0518C97.075 65.5231 96 61.9721 96 58C96 54.0279 97.075 50.4769 98.7607 47.9482C100.451 45.4126 102.677 44 105 44Z" fill="#D4D4D4" stroke="#555555" stroke-width="2"/>
<path d="M138.5 28C158.132 28 174 43.4722 174 62.5C174 74.2888 169.613 82.8795 163.035 88.5371C156.436 94.2137 147.556 97 138.5 97C120.745 97 104.016 84.749 103.034 63.4971L103 62.4775C103.005 49.2003 107.016 40.6511 113.33 35.3936C119.682 30.1041 128.537 28 138.5 28Z" fill="url(#paint1_linear_2013_16)" stroke="#BD9A73" stroke-width="2"/>
<path d="M54.5 12C74.1886 12 90 26.6298 90 44.5C90 62.0355 74.9952 77 54.5 77C44.0883 77 35.2364 75.1824 28.9971 70.2881C22.8083 65.4333 19 57.3957 19 44.5C19 31.6215 23.0045 23.5792 29.3018 18.7168C35.6504 13.8148 44.5105 12 54.5 12Z" fill="url(#paint2_linear_2013_16)" stroke="#84762D" stroke-width="2"/>
<path d="M142 15C139.617 15 134.08 15.72 131 17" stroke="#5E5E5E" stroke-width="2"/>
<path d="M166.5 58L177 56.4364C176.427 50.8007 174.595 37.9512 171.846 31.6392C169.097 25.3272 161.538 21.1191 158.102 19.8041C154.094 18.8648 145.046 16.8735 140.922 16.4227C135.769 15.8591 130.042 13.8591 127.179 14.4227C124.315 14.9862 124.888 17.8041 121.452 18.3677C118.016 18.9313 117.444 17.8041 111.717 20.0584C107.136 21.8619 107.327 25.5063 106.563 27.3849C105.036 30.2028 94.8323 43.3809 99.4999 47C101.166 48.2922 104 53.5 104 53.5C104 53.5 106.105 42.0653 111 39C113 44.5 117 49 157 41C162.174 45.9449 166.5 58 166.5 58Z" fill="#D9BB17" stroke="#897505" stroke-width="1.5" stroke-miterlimit="16"/>
<path d="M142 15C148.75 16.1326 157.75 18.8525 164.5 26.2146C169.9 32.1043 172 43.0154 172.375 47.7347L178 50C177.25 43.9593 173.95 19.4188 149.2 15.4545C147.512 15.1843 144.812 15 142 15Z" fill="#D4D4D4" stroke="#5E5E5E" stroke-width="2"/>
<ellipse cx="175.5" cy="59.5" rx="13.5" ry="15.5" fill="#D4D4D4" stroke="#555555" stroke-width="3"/>
<path d="M170.009 75C169.159 78.4239 167.122 82.8375 163 84.9639C157.468 87.8179 146.186 89.3693 141 89.9639L141.5 94.9639C147.263 94.1711 160.851 91.3666 165 89.4639C169.47 87.4142 173.063 83.2661 175.446 76.4502C173.503 76.3681 171.669 75.8571 170.009 75Z" fill="#E9E9E9"/>
<path d="M170.009 75L168.553 74.6386L169.01 72.7965L170.697 73.6671L170.009 75ZM141 89.9639L139.507 90.1131L139.36 88.642L140.829 88.4736L141 89.9639ZM141.5 94.9639L141.704 96.4499L140.162 96.662L140.007 95.1131L141.5 94.9639ZM165 89.4639L165.625 90.8273L165.625 90.8273L165 89.4639ZM175.446 76.4502L175.51 74.9515L177.53 75.0368L176.862 76.9454L175.446 76.4502ZM170.009 75L171.465 75.3614C170.574 78.9494 168.378 83.8773 163.688 86.2969L163 84.9639L162.312 83.6308C165.866 81.7976 167.744 77.8984 168.553 74.6386L170.009 75ZM163 84.9639L163.688 86.2969C160.719 87.8286 156.334 88.9612 152.16 89.7829C147.945 90.6127 143.784 91.1546 141.171 91.4541L141 89.9639L140.829 88.4736C143.403 88.1786 147.476 87.6474 151.581 86.8394C155.727 86.0233 159.749 84.9532 162.312 83.6308L163 84.9639ZM141 89.9639L142.493 89.8146L142.993 94.8146L141.5 94.9639L140.007 95.1131L139.507 90.1131L141 89.9639ZM141.5 94.9639L141.296 93.4779C144.122 93.089 148.916 92.1988 153.527 91.1663C158.192 90.1219 162.468 88.9747 164.375 88.1004L165 89.4639L165.625 90.8273C163.383 91.8558 158.79 93.0622 154.183 94.0938C149.522 95.1375 144.641 96.0459 141.704 96.4499L141.5 94.9639ZM165 89.4639L164.375 88.1004C168.376 86.2656 171.741 82.5015 174.03 75.955L175.446 76.4502L176.862 76.9454C174.384 84.0308 170.564 88.5627 165.625 90.8273L165 89.4639ZM175.446 76.4502L175.383 77.9489C173.214 77.8572 171.167 77.2862 169.321 76.3329L170.009 75L170.697 73.6671C172.171 74.4281 173.792 74.879 175.51 74.9515L175.446 76.4502Z" fill="#555555"/>
<path d="M19.9996 46H18.9648C19.9996 22.201 21.4709 16.3822 29.0001 14.5C35.2089 12.9479 36.5151 10.4054 43.5 9.5C50.4849 8.5946 59.6158 8.81881 64.5311 8.81881C72.5 8.5 70.5 4.5 79.0182 13.4751C82.64 17.6141 86.7792 23.8226 84.1922 24.8573C81.708 25.8509 81.4662 20.1207 72.5 19C68.3608 18.4826 65.1044 20.6197 62 24.5C59.9304 27.0869 56.5 25.5 51.5 24C46.6607 22.5482 43.1044 30.4305 40 32.5C36.8956 35.0869 36.2948 31.7583 30.5 33C24.7052 34.2417 23.1393 39.1712 22.6219 40.3784L19.9996 46Z" fill="url(#paint3_linear_2013_16)" stroke="#323232" stroke-width="6"/>
<path d="M80.5 21C73 18.5 54 27 52 21C56 22.5 54.5 18 58.1271 17.5C62 16.5 62.6129 13.8871 64 12.5C59.5 12 46.77 10.6582 42 11.5L55 7.5L75 9.5L80.5 21Z" fill="#323232"/>
<path d="M163 85C168.532 82.1459 170.308 75.1712 170.5 72L176.5 73C174.195 81.9189 170.186 87.1216 165 89.5C160.851 91.4027 147.263 94.2072 141.5 95L141 90C146.186 89.4054 157.468 87.8541 163 85Z" fill="#D4D4D4"/>
<path d="M166 70.5C182.5 68 182 64.5 189 54C190.5 68 183.5 72.6667 181 74C176 76.5 171.5 75.5 166 70.5Z" fill="#787878"/>
<ellipse cx="175.5" cy="59.5" rx="13.5" ry="15.5" stroke="#555555" stroke-width="3"/>
<defs>
<linearGradient id="paint0_linear_2013_16" x1="137.488" y1="98.4814" x2="136.883" y2="113.089" gradientUnits="userSpaceOnUse">
<stop stop-color="#FFDFC4"/>
<stop offset="1" stop-color="#998676"/>
</linearGradient>
<linearGradient id="paint1_linear_2013_16" x1="135.078" y1="39.3968" x2="130.066" y2="90.1231" gradientUnits="userSpaceOnUse">
<stop stop-color="#FFD6B3"/>
<stop offset="1" stop-color="#F4D3AC"/>
</linearGradient>
<linearGradient id="paint2_linear_2013_16" x1="40.6197" y1="20.2246" x2="84.4571" y2="110.991" gradientUnits="userSpaceOnUse">
<stop stop-color="#E1C10F"/>
<stop offset="1" stop-color="#B69B07"/>
</linearGradient>
<linearGradient id="paint3_linear_2013_16" x1="37" y1="39.5" x2="62" y2="-7.5" gradientUnits="userSpaceOnUse">
<stop offset="0.0769231" stop-color="#929292"/>
<stop offset="1" stop-color="#D9D9D9"/>
</linearGradient>
</defs>
</svg>
