<svg width="200" height="160" viewBox="0 0 200 160" fill="none" xmlns="http://www.w3.org/2000/svg">
<path d="M181 33.5L156 107L71.5 92L107.5 23.5L181 33.5Z" fill="url(#paint0_linear_2023_29)"/>
<path d="M71.5 92L107.5 23.5L181 33.5L156 107L71.5 92ZM71.5 92V110.5L158.5 126L183 51L177.182 50" stroke="#585858" stroke-width="3"/>
<path d="M152 63.5L158.5 45L120 39.5L112 57L152 63.5Z" fill="#E4E4E4" stroke="url(#paint1_linear_2023_29)" stroke-width="2"/>
<path d="M122.5 44.5L152.5 49M120.5 49L150.5 53.5M118 53.5L148 58" stroke="#B8B8B8" stroke-width="0.5"/>
<path d="M179 50.5L182.5 51L158.5 126.5L72 110.5V106L155.5 118.5L179 50.5Z" fill="#585858"/>
<path d="M73 109V92.5L156.5 107L182 36L181.5 51L157 124L73 109Z" fill="#E9E9E9"/>
<path d="M71.5 92L107.5 23.5L181.5 33.5L156 107L71.5 92ZM71.5 92V110.5L158.5 126L183 51" stroke="#585858" stroke-width="3"/>
<path d="M168.803 114.758L174.945 95.7642C175.503 94.0365 174.411 92.2124 172.625 91.889L162.52 90.0603L154 114.5L165.359 116.776C166.853 117.076 168.334 116.208 168.803 114.758Z" fill="#2C8C2C" stroke="#1C551C" stroke-width="2"/>
<path d="M177.369 87.9942L183.807 69.4384C184.425 67.6561 183.265 65.7521 181.397 65.4853L171 64L162.5 87.5L173.907 89.9443C175.388 90.2616 176.873 89.4252 177.369 87.9942Z" fill="#FFFF2F" stroke="#969600" stroke-width="2"/>
<path d="M184.317 63.3876L190.213 46.9063C190.868 45.0755 189.635 43.1149 187.702 42.9122L179 42L171 64L181.095 65.3506C182.498 65.5383 183.841 64.7201 184.317 63.3876Z" fill="#EBD842" stroke="#CBB617" stroke-width="2"/>
<path d="M181.5 33.5L156 107L71.5 92" stroke="#585858" stroke-width="3"/>
<path d="M44.8357 130.555C47.4138 133.191 51.8357 134.529 59.0213 132.725L129.556 115.019C132.336 114.191 133.081 113.157 133.55 111.635V100.829C133.416 102.937 131.558 104.911 129.556 105.477L59.0213 122.78C53.2699 124.191 48.1292 123.474 44.8357 118.881C33.1983 102.652 18.3359 77.6913 9.56262 69.6913C8.50327 68.3316 8.0064 67.2737 8.00006 66.4478V92.3829C8.12401 92.9394 8.58895 93.6286 9.56262 94.4906L44.8357 130.555Z" fill="#9F9F9F"/>
<path d="M44.8357 118.881C48.1292 123.474 53.2699 124.191 59.0213 122.78L129.556 105.477C131.558 104.911 133.416 102.937 133.55 100.829V100.344C133.507 99.6828 133.285 99.0178 132.836 98.3879C132.836 98.3879 112.836 62.1913 96.4013 50.0816C93.2719 47.7758 90.8357 45.1913 85.8357 46.2407L11.3357 63.9994C9.1955 64.4225 7.99009 65.1478 8.00006 66.4478C8.0064 67.2737 8.50327 68.3316 9.56262 69.6913C18.3359 77.6913 33.1983 102.652 44.8357 118.881Z" fill="url(#paint2_linear_2023_29)"/>
<path d="M59.0213 122.78C53.2699 124.191 48.1292 123.474 44.8357 118.881C33.1983 102.652 18.3359 77.6913 9.56262 69.6913C8.50327 68.3316 8.0064 67.2737 8.00006 66.4478M59.0213 122.78C82.1294 117.112 129.556 105.477 129.556 105.477M59.0213 122.78L129.556 105.477M59.0213 132.725C51.8357 134.529 47.4138 133.191 44.8357 130.555M59.0213 132.725C86.8969 125.727 129.556 115.019 129.556 115.019M59.0213 132.725L129.556 115.019M44.8357 130.555C33.1983 118.657 9.56262 94.4906 9.56262 94.4906M44.8357 130.555L9.56262 94.4906M129.556 105.477C131.558 104.911 133.416 102.937 133.55 100.829M129.556 115.019C132.336 114.191 133.081 113.157 133.55 111.635V100.829M133.55 100.344C133.507 99.6828 133.285 99.0178 132.836 98.3879C132.836 98.3879 112.836 62.1913 96.4013 50.0816C93.2719 47.7758 90.8357 45.1913 85.8357 46.2407L11.3357 63.9994C9.1955 64.4225 7.99009 65.1478 8.00006 66.4478M133.55 100.344V100.829M133.55 100.344C133.561 100.506 133.56 100.668 133.55 100.829M9.56262 94.4906C8.58895 93.6286 8.12401 92.9394 8.00006 92.3829V66.4478" stroke="#505050" stroke-width="2"/>
<path d="M85.5001 53.5L55 61L63.5 71.5L94.5 63.5L85.5001 53.5Z" fill="#7A8471" stroke="#505050"/>
<path d="M79.4366 107.836L85.4055 106.269C85.0163 105.326 83.4474 101.589 81.0973 96.8076L75.3292 98.3943C77.6299 103.254 79.1194 107.02 79.4366 107.836Z" fill="#D9D9D9"/>
<path d="M76.0634 87.3743L70.4015 88.8878C72.2833 92.1829 73.9516 95.4846 75.3292 98.3943L81.0973 96.8076C79.6758 93.9156 77.9684 90.642 76.0634 87.3743Z" fill="#D9D9D9"/>
<path d="M71.3677 80.036L65.7295 81.4971C67.3891 83.8368 68.9581 86.3604 70.4015 88.8878L76.0634 87.3743C74.6013 84.8663 73.0228 82.3618 71.3677 80.036Z" fill="#D9D9D9"/>
<path d="M68.138 75.873L62.5005 77.3464C63.6069 78.6275 64.6861 80.026 65.7295 81.4971L71.3677 80.036C70.3185 78.5617 69.2386 77.1591 68.138 75.873Z" fill="#D9D9D9"/>
<path d="M107.428 70.6918C106.277 69.2178 105.128 67.806 104 66.5L92.0492 69.6235C93.1634 70.9169 94.2842 72.3274 95.3948 73.8099L107.428 70.6918Z" fill="#D9D9D9"/>
<path d="M100.317 80.8907L112.552 77.6198C110.89 75.2684 109.158 72.9097 107.428 70.6918L95.3948 73.8099C97.0787 76.0577 98.739 78.4707 100.317 80.8907Z" fill="#D9D9D9"/>
<path d="M105.901 89.9841L118.566 86.5C118.454 86.3282 118.341 86.155 118.227 85.9805C116.53 83.3883 114.594 80.5096 112.552 77.6198L100.317 80.8907C102.36 84.0248 104.264 87.1705 105.901 89.9841Z" fill="#D9D9D9"/>
<path d="M111.173 99.507L124.535 96.0002C124.535 96.0002 121.96 91.6835 118.227 85.9805C118.341 86.155 118.454 86.3282 118.566 86.5L105.901 89.9841C108.507 94.4607 110.436 98.0965 111.173 99.507Z" fill="#D9D9D9"/>
<path d="M93.6198 93.3627C96.3793 98.4309 98.2149 102.3 98.4696 102.841L111.173 99.507C110.436 98.0965 108.507 94.4607 105.901 89.9841L93.6198 93.3627Z" fill="#D9D9D9"/>
<path d="M100.317 80.8907L88.2448 84.1178C90.2484 87.3263 92.0782 90.5316 93.6198 93.3627L105.901 89.9841C104.264 87.1705 102.36 84.0248 100.317 80.8907Z" fill="#D9D9D9"/>
<path d="M95.3948 73.8099L83.3957 76.9192C85.0795 79.21 86.713 81.6648 88.2448 84.1178L100.317 80.8907C98.739 78.4707 97.0787 76.0577 95.3948 73.8099Z" fill="#D9D9D9"/>
<path d="M95.3948 73.8099C94.2842 72.3274 93.1634 70.9169 92.0492 69.6235L80.0981 72.7471C81.2091 74.0406 82.3128 75.446 83.3957 76.9192L95.3948 73.8099Z" fill="#D9D9D9"/>
<path d="M68.138 75.873C69.2386 77.1591 70.3185 78.5617 71.3677 80.036L83.3957 76.9192C82.3128 75.446 81.2091 74.0406 80.0981 72.7471L68.138 75.873Z" fill="#D9D9D9"/>
<path d="M71.3677 80.036C73.0228 82.3618 74.6013 84.8663 76.0634 87.3743L88.2448 84.1178C86.713 81.6648 85.0795 79.21 83.3957 76.9192L71.3677 80.036Z" fill="#D9D9D9"/>
<path d="M76.0634 87.3743C77.9684 90.642 79.6758 93.9156 81.0973 96.8076L93.6198 93.3627C92.0782 90.5316 90.2484 87.3263 88.2448 84.1178L76.0634 87.3743Z" fill="#D9D9D9"/>
<path d="M81.0973 96.8076C83.4474 101.589 85.0163 105.326 85.4055 106.269L98.4696 102.841C98.2149 102.3 96.3793 98.4309 93.6198 93.3627L81.0973 96.8076Z" fill="#D9D9D9"/>
<path d="M85.4055 106.269L79.4366 107.836C79.1194 107.02 77.6299 103.254 75.3292 98.3943M85.4055 106.269C85.0163 105.326 83.4474 101.589 81.0973 96.8076M85.4055 106.269L98.4696 102.841M81.0973 96.8076L75.3292 98.3943M81.0973 96.8076C79.6758 93.9156 77.9684 90.642 76.0634 87.3743M81.0973 96.8076L93.6198 93.3627M75.3292 98.3943C73.9516 95.4846 72.2833 92.1829 70.4015 88.8878M76.0634 87.3743L70.4015 88.8878M76.0634 87.3743C74.6013 84.8663 73.0228 82.3618 71.3677 80.036M76.0634 87.3743L88.2448 84.1178M70.4015 88.8878C68.9581 86.3604 67.3891 83.8368 65.7295 81.4971M71.3677 80.036L65.7295 81.4971M71.3677 80.036C70.3185 78.5617 69.2386 77.1591 68.138 75.873M71.3677 80.036L83.3957 76.9192M65.7295 81.4971C64.6861 80.026 63.6069 78.6275 62.5005 77.3464L68.138 75.873M68.138 75.873L80.0981 72.7471M107.428 70.6918C106.277 69.2178 105.128 67.806 104 66.5L92.0492 69.6235M107.428 70.6918L95.3948 73.8099M107.428 70.6918C109.158 72.9097 110.89 75.2684 112.552 77.6198M92.0492 69.6235C93.1634 70.9169 94.2842 72.3274 95.3948 73.8099M92.0492 69.6235L80.0981 72.7471M95.3948 73.8099C97.0787 76.0577 98.739 78.4707 100.317 80.8907M95.3948 73.8099L83.3957 76.9192M100.317 80.8907L112.552 77.6198M100.317 80.8907C102.36 84.0248 104.264 87.1705 105.901 89.9841M100.317 80.8907L88.2448 84.1178M112.552 77.6198C114.594 80.5096 116.53 83.3883 118.227 85.9805M105.901 89.9841L118.566 86.5C118.454 86.3282 118.341 86.155 118.227 85.9805M105.901 89.9841C108.507 94.4607 110.436 98.0965 111.173 99.507M105.901 89.9841L93.6198 93.3627M111.173 99.507L124.535 96.0002C124.535 96.0002 121.96 91.6835 118.227 85.9805M111.173 99.507L98.4696 102.841M93.6198 93.3627C96.3793 98.4309 98.2149 102.3 98.4696 102.841M93.6198 93.3627C92.0782 90.5316 90.2484 87.3263 88.2448 84.1178M88.2448 84.1178C86.713 81.6648 85.0795 79.21 83.3957 76.9192M83.3957 76.9192C82.3128 75.446 81.2091 74.0406 80.0981 72.7471" stroke="#5B5B5B"/>
<path d="M20.0159 66.3707C19.2519 71.2948 22.5137 76.169 30.5001 77.5C31.7845 77.7569 32.4806 77.4987 34 77C33.3441 76.4938 33.1833 76.291 32.5 76C28.1164 74.7012 20.5 72.5 20.0159 66.3707Z" fill="#505050"/>
<path d="M63.0574 115.5C71.4956 115.5 76.2615 111.213 75.3329 104.623C75.589 109.901 67.0389 111.871 63.0574 111.659C60.6143 111.528 58.1861 110.621 56 109.27C53.3815 107.652 51.1104 105.399 49.5776 103.086C48.9861 104.426 49.1613 105.984 49.5 107C50.7567 110.77 54.2899 115.5 63.0574 115.5Z" fill="#505050"/>
<path d="M39.5 58.5C32.5 55.7 23.4847 56.2939 20.5001 64.5C20.2748 65.1196 20.1129 65.7456 20.0159 66.3707C20.5 72.5 28.1164 74.7012 32.5 76C39.5967 77.8513 44.1551 89 47.662 96.5C50 101.5 51.2 105.886 56 109.27C58.1861 110.621 60.6143 111.528 63.0574 111.659C67.0389 111.871 75.589 109.901 75.3329 104.623C75.2586 104.097 75.148 103.555 75 103C73.5 97 67 84.5 61 77C54 68.25 47.1348 62.7416 39.5 58.5Z" fill="url(#paint3_linear_2023_29)"/>
<path d="M75 103C73.5 97 67 84.5 61 77C54 68.25 47.1348 62.7416 39.5 58.5C32.5 55.7 23.4847 56.2939 20.5001 64.5C20.2748 65.1196 20.1129 65.7456 20.0159 66.3707M75 103C75.2012 103.573 75.3081 104.113 75.3329 104.623M75 103C75.148 103.555 75.2586 104.097 75.3329 104.623M32.5 76C33.1833 76.291 33.3441 76.4938 34 77M32.5 76C28.1164 74.7012 20.5 72.5 20.0159 66.3707M32.5 76C39.5967 77.8513 44.1551 89 47.662 96.5C50 101.5 51.2 105.886 56 109.27M20.0159 66.3707C19.2519 71.2948 22.5137 76.169 30.5001 77.5C31.7845 77.7569 32.4806 77.4987 34 77M34 77C36.3585 78.82 40 82 43 88C45.1095 92.219 47 96 48.5 100L49.5776 103.086M49.5776 103.086C48.9861 104.426 49.1613 105.984 49.5 107C50.7567 110.77 54.2899 115.5 63.0574 115.5C71.4956 115.5 76.2615 111.213 75.3329 104.623M49.5776 103.086C51.1104 105.399 53.3815 107.652 56 109.27M75.3329 104.623C75.589 109.901 67.0389 111.871 63.0574 111.659C60.6143 111.528 58.1861 110.621 56 109.27" stroke="#505050" stroke-width="2"/>
<defs>
<linearGradient id="paint0_linear_2023_29" x1="55.5" y1="-1" x2="172" y2="111" gradientUnits="userSpaceOnUse">
<stop stop-color="white"/>
<stop offset="1" stop-color="#666666"/>
</linearGradient>
<linearGradient id="paint1_linear_2023_29" x1="130.5" y1="42" x2="153" y2="81.5" gradientUnits="userSpaceOnUse">
<stop stop-color="#585858"/>
<stop offset="1" stop-color="#BEBEBE"/>
</linearGradient>
<linearGradient id="paint2_linear_2023_29" x1="70.779" y1="133.552" x2="70.779" y2="46" gradientUnits="userSpaceOnUse">
<stop offset="0.192308" stop-color="#E9E9E9"/>
<stop offset="1" stop-color="#9F9F9F"/>
</linearGradient>
<linearGradient id="paint3_linear_2023_29" x1="47.6776" y1="115.5" x2="47.6776" y2="56.9868" gradientUnits="userSpaceOnUse">
<stop offset="0.201923" stop-color="#F3F3F3"/>
<stop offset="1" stop-color="#868686"/>
</linearGradient>
</defs>
</svg>
