<svg width="198" height="198" viewBox="0 0 198 198" fill="none" xmlns="http://www.w3.org/2000/svg">
<g clip-path="url(#clip0_2011_16)">
<path d="M50.7534 4.70312C49.5854 4.47953 47.9604 4.17833 46.5581 5.41602L42.4858 8.56641L42.4341 8.60645L42.3862 8.65039C40.8817 10.0406 40.6353 12.3436 41.8638 14.0127L41.8687 14.0186L58.7886 36.7646C58.9305 36.9587 58.9964 37.1873 58.9868 37.4121L58.978 37.5088L58.9771 37.5205L58.1909 43.4014V43.4033C58.1608 43.6311 58.0523 43.8471 57.8765 44.0176L57.7974 44.0879L57.7847 44.0977L57.7729 44.1084L45.1196 54.7207C44.9456 54.8576 44.7324 54.9362 44.5112 54.9521L38.0581 54.4844L37.979 54.4785L37.8989 54.4814C37.5335 54.4934 37.1923 54.3255 36.9839 54.042L36.9722 54.0254L36.9595 54.0098L18.8794 30.748C18.1836 29.8177 17.1327 29.245 15.9966 29.1318L15.9868 29.1309L15.771 29.1162C14.7181 29.0739 13.6786 29.4383 12.8784 30.1504L9.75049 32.6865C8.39724 33.6871 8.04186 35.0272 7.9126 36.2109C4.32236 50.1554 7.1103 66.6321 23.1226 81.0107L23.1235 81.0098C32.0512 89.0285 41.9284 90.4368 50.6294 91.0576C55.0345 91.3719 58.9967 91.4802 62.5835 92.0801C66.1054 92.6691 69.0343 93.705 71.3472 95.7236L156.323 186.624C156.651 187.007 156.996 187.373 157.346 187.72C165.222 195.513 178.162 195.319 185.779 187.782C193.422 180.219 193.41 167.561 185.544 159.777C185.365 159.6 185.179 159.422 184.982 159.246L96.8413 75.5049C95.5128 74.1895 94.186 71.8184 93.1929 68.7354C92.2187 65.7112 91.6092 62.134 91.5981 58.4873C91.5984 58.4857 91.5979 58.484 91.5981 58.4824C91.61 58.3979 91.6268 58.277 91.645 58.1211C91.6815 57.8089 91.7264 57.3554 91.7661 56.7734C91.8455 55.6098 91.902 53.928 91.8149 51.8164C91.6408 47.5923 90.8937 41.6436 88.6138 34.6807C85.9413 26.5109 79.4004 19.604 72.1821 14.4873C64.9537 9.36344 56.8463 5.89227 50.7593 4.7041L50.7534 4.70312Z" fill="#BFCED8" stroke="#66757F" stroke-width="3"/>
<path d="M135 120.442C132.6 119.642 130.667 120.108 130 120.442C131.2 125.642 162.833 155.608 178.5 169.942C181.667 170.108 186.7 169.142 181.5 163.942C167 149.775 137.4 121.242 135 120.442Z" fill="#F7F9FB"/>
<path d="M167.216 42.9275L103.158 106.981L91.0195 94.842L155.073 30.7835L159.5 16.5L181.5 5.5L192.5 16.5L181.5 38.5L167.216 42.9275Z" fill="#99AAB5"/>
<path d="M102.911 95.3315L153.808 44.4345C156.327 41.921 157.311 38.7915 156.002 37.4825C154.688 36.1735 151.564 37.158 149.05 39.6715L98.1532 90.5685C95.6397 93.082 94.6552 96.2115 95.9642 97.5205C97.2677 98.8295 100.397 97.845 102.911 95.3315Z" fill="#E1E8ED"/>
<path d="M108.185 114.092L83.9081 89.815C82.0181 87.9362 79.4615 86.8816 76.7966 86.8816C74.1316 86.8816 71.575 87.9362 69.6851 89.815L9.38307 150.117C7.50426 152.007 6.44968 154.564 6.44968 157.228C6.44968 159.893 7.50426 162.45 9.38307 164.34L33.6601 188.617C35.55 190.496 38.1066 191.55 40.7716 191.55C43.4365 191.55 45.9931 190.496 47.8831 188.617L108.185 128.315C110.064 126.425 111.118 123.868 111.118 121.204C111.118 118.539 110.064 115.982 108.185 114.092ZM120.632 105.204L92.7961 77.3685C91.3784 75.9609 89.4616 75.171 87.4638 75.171C85.466 75.171 83.5492 75.9609 82.1316 77.3685C80.7239 78.7862 79.934 80.703 79.934 82.7008C79.934 84.6986 80.7239 86.6153 82.1316 88.033L109.967 115.868C111.385 117.276 113.302 118.066 115.299 118.066C117.297 118.066 119.214 117.276 120.632 115.868C122.039 114.451 122.829 112.534 122.829 110.536C122.829 108.538 122.039 106.622 120.632 105.204Z" fill="#0E4194"/>
<path d="M110.924 98.7085L92.5649 80.3495C90.0514 77.836 86.9219 76.8515 85.6129 78.1605C84.3039 79.4695 85.2884 82.599 87.8019 85.1125L106.161 103.472C108.674 105.985 111.804 106.97 113.113 105.661C114.427 104.352 113.437 101.222 110.924 98.7085Z" fill="#709FEC"/>
<path d="M76.7965 96.9265C75.8523 95.9858 74.5737 95.4575 73.2408 95.4575C71.9079 95.4575 70.6293 95.9858 69.685 96.9265L16.489 150.122C15.5483 151.067 15.0201 152.345 15.0201 153.678C15.0201 155.011 15.5483 156.29 16.489 157.234C17.4333 158.175 18.7119 158.703 20.0448 158.703C21.3777 158.703 22.6563 158.175 23.6005 157.234L76.7965 104.038C77.7373 103.094 78.2655 101.815 78.2655 100.482C78.2655 99.1493 77.7373 97.8708 76.7965 96.9265ZM101.074 121.204C100.129 120.263 98.8507 119.735 97.5178 119.735C96.1849 119.735 94.9063 120.263 93.962 121.204L40.766 174.399C39.8253 175.344 39.2971 176.622 39.2971 177.955C39.2971 179.288 39.8253 180.567 40.766 181.511C41.7103 182.452 42.9889 182.98 44.3218 182.98C45.6547 182.98 46.9333 182.452 47.8775 181.511L101.074 128.315C102.014 127.371 102.542 126.092 102.542 124.759C102.542 123.426 102.014 122.148 101.074 121.204ZM92.059 105.077C90.101 103.119 86.724 103.301 84.557 105.473L26.081 163.949C23.9085 166.122 23.7325 169.499 25.685 171.452C27.643 173.41 31.02 173.228 33.187 171.055L91.6685 112.579C93.841 110.407 94.017 107.03 92.059 105.077Z" fill="#022256"/>
<path d="M180.647 5.929H181.929L192.214 16.214L192.192 17.127L190.41 20.68L177.32 7.59L180.647 5.929Z" fill="#66757F"/>
<path d="M186.191 19.6515L177.127 10.582L161.931 18.425L174.185 30.349L186.191 19.6515Z" fill="#E1E8ED"/>
</g>
<defs>
<clipPath id="clip0_2011_16">
<rect width="198" height="198" fill="white" transform="matrix(-1 0 0 1 198 0)"/>
</clipPath>
</defs>
</svg>
